REM DIRINDEX 1\2,1\3,1\4,1\5
REM DIRNAME "folder01","folder02","folder03","folder04","folder05"
TITLE ""
FILE "1Q_t_1059-1068.mp3" MP3
  TRACK 01 AUDIO
    TITLE "3:cjc172_4137"
    INDEX 01 00:00:00
  TRACK 02 AUDIO
    TITLE "0:"
    INDEX 01 00:01:10
  TRACK 03 AUDIO
    TITLE "4:cjc172_4138"
    INDEX 01 00:01:18
  TRACK 04 AUDIO
    TITLE "0:"
    INDEX 01 00:02:33
  TRACK 05 AUDIO
    TITLE "5:cjc172_4139"
    INDEX 01 00:02:43
  TRACK 06 AUDIO
    TITLE "0:"
    INDEX 01 00:08:18
  TRACK 07 AUDIO
    TITLE "3:cjc172_4140"
    INDEX 01 00:08:63
  TRACK 08 AUDIO
    TITLE "0:"
    INDEX 01 00:09:58
  TRACK 09 AUDIO
    TITLE "4:cjc172_4141"
    INDEX 01 00:09:68
  TRACK 10 AUDIO
    TITLE "0:"
    INDEX 01 00:11:73
  TRACK 11 AUDIO
    TITLE "5:cjc172_4142"
    INDEX 01 00:12:06
  TRACK 12 AUDIO
    TITLE "0:"
    INDEX 01 00:17:56
  TRACK 13 AUDIO
    TITLE "3:cjc172_4143"
    INDEX 01 00:18:26
  TRACK 14 AUDIO
    TITLE "0:"
    INDEX 01 00:19:27
  TRACK 15 AUDIO
    TITLE "4:cjc172_4144"
    INDEX 01 00:19:33
  TRACK 16 AUDIO
    TITLE "0:"
    INDEX 01 00:20:33
  TRACK 17 AUDIO
    TITLE "5:cjc172_4145"
    INDEX 01 00:20:40
  TRACK 18 AUDIO
    TITLE "0:"
    INDEX 01 00:28:20
  TRACK 19 AUDIO
    TITLE "3:cjc172_4146"
    INDEX 01 00:28:67
  TRACK 20 AUDIO
    TITLE "0:"
    INDEX 01 00:30:21
  TRACK 21 AUDIO
    TITLE "4:cjc172_4147"
    INDEX 01 00:30:29
  TRACK 22 AUDIO
    TITLE "0:"
    INDEX 01 00:31:32
  TRACK 23 AUDIO
    TITLE "5:cjc172_4148"
    INDEX 01 00:31:40
  TRACK 24 AUDIO
    TITLE "0:"
    INDEX 01 00:37:47
  TRACK 25 AUDIO
    TITLE "3:cjc172_4149"
    INDEX 01 00:38:19
  TRACK 26 AUDIO
    TITLE "0:"
    INDEX 01 00:39:53
  TRACK 27 AUDIO
    TITLE "4:cjc172_4150"
    INDEX 01 00:39:61
  TRACK 28 AUDIO
    TITLE "0:"
    INDEX 01 00:42:19
  TRACK 29 AUDIO
    TITLE "5:cjc172_4151"
    INDEX 01 00:42:22
  TRACK 30 AUDIO
    TITLE "0:"
    INDEX 01 00:49:15
  TRACK 31 AUDIO
    TITLE "3:cjc172_4152"
    INDEX 01 00:49:62
  TRACK 32 AUDIO
    TITLE "0:"
    INDEX 01 00:51:16
  TRACK 33 AUDIO
    TITLE "4:cjc172_4153"
    INDEX 01 00:51:21
  TRACK 34 AUDIO
    TITLE "0:"
    INDEX 01 00:52:36
  TRACK 35 AUDIO
    TITLE "5:cjc172_4154"
    INDEX 01 00:52:42
  TRACK 36 AUDIO
    TITLE "0:"
    INDEX 01 00:58:43
  TRACK 37 AUDIO
    TITLE "3:cjc172_4155"
    INDEX 01 00:59:13
  TRACK 38 AUDIO
    TITLE "0:"
    INDEX 01 01:00:20
  TRACK 39 AUDIO
    TITLE "4:cjc172_4156"
    INDEX 01 01:00:28
  TRACK 40 AUDIO
    TITLE "0:"
    INDEX 01 01:01:61
  TRACK 41 AUDIO
    TITLE "5:cjc172_4157"
    INDEX 01 01:01:67
  TRACK 42 AUDIO
    TITLE "0:"
    INDEX 01 01:07:56
  TRACK 43 AUDIO
    TITLE "3:cjc172_4158"
    INDEX 01 01:08:26
  TRACK 44 AUDIO
    TITLE "0:"
    INDEX 01 01:09:25
  TRACK 45 AUDIO
    TITLE "4:cjc172_4159"
    INDEX 01 01:09:33
  TRACK 46 AUDIO
    TITLE "0:"
    INDEX 01 01:10:31
  TRACK 47 AUDIO
    TITLE "5:cjc172_4160"
    INDEX 01 01:10:36
  TRACK 48 AUDIO
    TITLE "0:"
    INDEX 01 01:16:45
  TRACK 49 AUDIO
    TITLE "3:cjc172_4161"
    INDEX 01 01:17:13
  TRACK 50 AUDIO
    TITLE "0:"
    INDEX 01 01:18:12
  TRACK 51 AUDIO
    TITLE "4:cjc172_4162"
    INDEX 01 01:18:22
  TRACK 52 AUDIO
    TITLE "0:"
    INDEX 01 01:20:25
  TRACK 53 AUDIO
    TITLE "5:cjc172_4163"
    INDEX 01 01:20:31
  TRACK 54 AUDIO
    TITLE "0:"
    INDEX 01 01:24:11
  TRACK 55 AUDIO
    TITLE "3:cjc172_4164"
    INDEX 01 01:24:56
  TRACK 56 AUDIO
    TITLE "0:"
    INDEX 01 01:25:58
  TRACK 57 AUDIO
    TITLE "4:cjc172_4165"
    INDEX 01 01:25:65
  TRACK 58 AUDIO
    TITLE "0:"
    INDEX 01 01:27:09
  TRACK 59 AUDIO
    TITLE "5:cjc172_4166"
    INDEX 01 01:27:15
  TRACK 60 AUDIO
    TITLE "0:"
    INDEX 01 01:32:03
